<svg aria-hidden="true" style="position:absolute;width:0;height:0" xmlns="http://www.w3.org/2000/svg" overflow="hidden"><defs><symbol id="icon-ticket" viewBox="0 0 32 32"><path d="M3.556 5.778H0v21.333h3.556V5.778zM12.498 5.778H8.942v21.333h3.556V5.778zM17.886 5.778h-3.555v21.333h3.555V5.778zM32 5.778h-5.279v21.333H32V5.778zM7.111 5.778H5.387v21.333h1.724V5.778zM21.333 5.778h-1.724v21.333h1.724V5.778zM24.889 5.778h-1.724v21.333h1.724V5.778z"/></symbol><symbol id="icon-close" viewBox="0 0 32 32"><path fill="var(--color1, #4c00fe)" d="M1.646 32a1.646 1.646 0 01-1.163-2.811L29.19.482a1.646 1.646 0 112.328 2.329L2.811 31.517A1.65 1.65 0 011.646 32z"/><path fill="var(--color1, #4c00fe)" d="M30.355 32c-.421 0-.843-.16-1.163-.483L.483 2.811A1.647 1.647 0 012.812.482l28.707 28.707A1.646 1.646 0 0130.356 32z"/></symbol><symbol id="icon-rectangle" viewBox="0 0 32 32"><path fill="none" stroke="var(--color2, #dc56c5)" stroke-width="1.067" d="M.533 10.667C.533 5.071 5.07.534 10.666.534h20.8v20.8c0 5.596-4.537 10.133-10.133 10.133H.533v-20.8z"/></symbol><symbol id="icon-vector" viewBox="0 0 32 32"><path fill="var(--color3, #fff)" d="M16 0C9.824 0 4.8 4.99 4.8 11.123 4.8 18.832 16.011 32 16.011 32S27.2 18.453 27.2 11.123C27.2 4.99 22.176 0 16 0zm3.379 14.38c-.932.925-2.155 1.388-3.379 1.388s-2.448-.463-3.379-1.388a4.729 4.729 0 010-6.712c.902-.896 2.103-1.39 3.379-1.39s2.477.494 3.379 1.39a4.729 4.729 0 010 6.712z"/></symbol><symbol id="icon-search" viewBox="0 0 32 32"><path d="M4.024 4.024C6.619 1.429 10.069 0 13.739 0s7.12 1.429 9.715 4.024a13.649 13.649 0 014.024 9.715 13.64 13.64 0 01-3.383 9.029l7.63 7.63a.94.94 0 01-1.327 1.327l-7.63-7.63a13.635 13.635 0 01-9.029 3.383c-3.67 0-7.12-1.429-9.715-4.024S0 17.409 0 13.739s1.429-7.12 4.024-9.715zm1.327 18.103c4.625 4.625 12.15 4.625 16.775 0s4.625-12.15 0-16.775c-2.313-2.313-5.35-3.469-8.388-3.469S7.663 3.04 5.35 5.352c-4.625 4.625-4.625 12.15 0 16.775z"/></symbol><symbol id="icon-polygon" viewBox="0 0 32 32"><path d="M16 25.846L.012 7.384h31.976L16 25.846z"/></symbol>
<symbol id="icon-map" viewBox="0 0 21 32">
<path fill="" style="fill: " d="M10.667 0c-5.882 0-10.667 4.99-10.667 11.123 0 7.709 10.677 20.877 10.677 20.877s10.656-13.547 10.656-20.877c0-6.133-4.785-11.123-10.667-11.123zM13.885 14.38c-0.887 0.925-2.053 1.388-3.218 1.388s-2.331-0.463-3.218-1.388c-1.775-1.85-1.775-4.861 0-6.712 0.859-0.896 2.002-1.39 3.218-1.39s2.359 0.494 3.218 1.39c1.775 1.851 1.775 4.861 0 6.712z"></path>
</symbol>
</defs></svg>